<svg width="100" height="110" viewBox="0 0 100 110" fill="none" xmlns="http://www.w3.org/2000/svg">
<path d="M51.5373 2.21154C56.7297 0.666206 59.8954 0 59.8954 0C59.8954 0 52.9075 5 50.1124 7.5C47.3173 10 45.9734 14.9926 64.4857 20.2404C82.9981 25.4882 66.0248 42.9167 48.0512 45C52.7957 42.3958 57.5666 36.2111 47.0543 32.0879C3.53006 15.0167 45.3616 4.04952 51.5373 2.21154Z" fill="#FFFFFF"/>
<path d="M95.003 60.0001C97.7644 60.0001 100.026 62.2451 99.7538 64.9931C97.2485 90.263 75.9291 110 50 110C24.0709 110 2.75155 90.263 0.246181 64.9931C-0.0262625 62.2451 2.23557 60.0001 4.99698 60.0001C13.0994 60 30.2065 60 50 60C69.7935 60 86.9006 60 95.003 60.0001Z" fill="#FF856A"/>
</svg>